<svg xmlns="http://www.w3.org/2000/svg" width="30.914" height="38.294" viewBox="0 0 30.914 38.294">
  <path id="Path_73" data-name="Path 73" d="M13.981,1.922h5.781L25.83-2.465,18.409-4.72Zm2.993,31.652c8.856,0,15.5-6.683,15.5-14.924v-.082c0-8.241-6.56-14.842-15.416-14.842s-15.5,6.683-15.5,14.924v.082C1.558,26.973,8.118,33.574,16.974,33.574Zm.082-7.175A7.451,7.451,0,0,1,9.717,18.65v-.082c0-4.141,2.911-7.667,7.257-7.667a7.458,7.458,0,0,1,7.38,7.749v.082C24.354,22.873,21.443,26.4,17.056,26.4Z" transform="translate(-1.558 4.72)" fill="#3b34ed"/>
</svg>
